<?xml version="1.0" encoding="UTF-8"?>
<!DOCTYPE svg PUBLIC "-//W3C//DTD SVG 1.1//EN" "http://www.w3.org/Graphics/SVG/1.1/DTD/svg11.dtd">
<svg version="1.1" xmlns="http://www.w3.org/2000/svg" xmlns:xlink="http://www.w3.org/1999/xlink" width="151" height="63"  xml:space="preserve" id="hwcseattletreewoctober">
    <!-- Generated by PaintCode - http://www.paintcodeapp.com -->
    <g id="hwcseattletreewoctober-group2" clip-path="url(#hwcseattletreewoctober-rectangle2)">
        <clipPath id="hwcseattletreewoctober-rectangle2">
            <rect x="0" y="-58" width="151" height="58"  transform="translate(0, 58)" />
        </clipPath>
        <g id="hwcseattletreewoctober-group">
            <path id="hwcseattletreewoctober-polygon3" stroke="none" fill="none" d="M 47.11,9.89 L 65.37,48.89 71.13,36.58 58.68,9.89 47.11,9.89 Z M 47.11,9.89" />
            <path id="hwcseattletreewoctober-polygon5" stroke="none" fill="none" d="M 103.37,10 L 91.12,10 75,10 84.33,35.74 89.17,49 103.37,10 Z M 103.37,10" />
            
            <text  fill="rgb(0, 0, 0)" font-family="HelveticaNeue, 'Helvetica Neue', Helvetica, Arial, sans-serif" font-size="13" x="-9.26" y="-10.78" transform="translate(104.86, 31.05) scale(2.5, 2.5)"  text-anchor="end"><tspan x="7.54" y="4.22">🌲</tspan></text>
            
            <text  fill="rgb(0, 0, 0)" font-family="HelveticaNeue, 'Helvetica Neue', Helvetica, Arial, sans-serif" font-size="13" x="-9.26" y="-10.78" transform="translate(49.86, 31.05) scale(2.5, 2.5)"  text-anchor="end"><tspan x="7.54" y="4.22">🌲</tspan></text>
            <path id="hwcseattletreewoctober-rect7" stroke="none" fill="rgb(255, 0, 0)" d="M 10.68,9.89 L 27.07,9.89 27.1,19.95 C 27.1,19.95 27.05,20.58 27.53,21.22 27.78,21.56 28.34,21.91 29.04,21.93 29.8,21.87 30.11,21.63 30.5,21.22 30.94,20.75 30.93,20.02 30.93,20.02 L 30.93,9.88 47.09,9.89 47.09,45 30.91,45 30.9,33.9 C 30.9,33.9 30.96,33.27 30.46,32.68 29.81,31.92 28.96,32 28.96,32 28.96,32 28.08,31.99 27.49,32.71 27.14,33.15 27.07,33.76 27.07,33.76 L 27.08,45 10.68,45 10.68,9.89 Z M 10.68,9.89" />
            <g id="hwcseattletreewoctober-sVGID_2_" clip-path="url(#hwcseattletreewoctober-rectangle)">
                <clipPath id="hwcseattletreewoctober-rectangle">
                    <rect x="0.5" y="-0.31" width="150.5" height="71.55" />
                </clipPath>
                <path id="hwcseattletreewoctober-path19" stroke="none" fill="rgb(255, 177, 0)" d="M 140.51,29.96 C 139.57,39.98 131.14,47.82 120.88,47.82 109.99,47.82 101.16,38.98 101.16,28.09 101.16,17.19 109.99,8.36 120.88,8.36 131.11,8.36 139.53,16.16 140.5,26.14 L 120.89,26.14 C 119.83,26.14 118.97,26.99 118.97,28.05 118.97,29.1 119.83,29.96 120.89,29.96 L 140.51,29.96 140.51,29.96 Z M 140.51,29.96" />
            </g>
            
            <text  fill="rgb(0, 0, 0)" font-family="HelveticaNeue, 'Helvetica Neue', Helvetica, Arial, sans-serif" font-size="13" x="-9.26" y="-10.78" transform="translate(76.86, 31.05) rotate(-360) scale(2.5, 2.5)"  text-anchor="end"><tspan x="7.54" y="4.22">🌲</tspan></text>
        </g>
    </g>
    
    <text  fill="rgb(0, 0, 0)" font-family="HelveticaNeue, 'Helvetica Neue', Helvetica, Arial, sans-serif" font-size="13" x="0" y="-0" transform="translate(71, 41) scale(0.4, 0.4)" ><tspan x="0" y="15">🕷
</tspan></text>
    
    <text  fill="rgb(0, 0, 0)" font-family="HelveticaNeue, 'Helvetica Neue', Helvetica, Arial, sans-serif" font-size="13" x="0" y="-0" transform="translate(45, 41) scale(0.4, 0.4)" ><tspan x="0" y="15">🕷
</tspan></text>
    
    <text  fill="rgb(0, 0, 0)" font-family="HelveticaNeue, 'Helvetica Neue', Helvetica, Arial, sans-serif" font-size="13" x="0" y="-0" transform="translate(99, 41) scale(0.4, 0.4)" ><tspan x="0" y="15">🕷
</tspan></text>
    
    <text  fill="rgb(0, 0, 0)" font-family="HelveticaNeue, 'Helvetica Neue', Helvetica, Arial, sans-serif" font-size="6" x="85" y="16"><tspan x="85" y="36">🕸</tspan></text>
    
    <text  fill="rgb(0, 0, 0)" font-family="HelveticaNeue, 'Helvetica Neue', Helvetica, Arial, sans-serif" font-size="6" x="57" y="11"><tspan x="57" y="31">🕸</tspan></text>
    
    <text  fill="rgb(0, 0, 0)" font-family="HelveticaNeue, 'Helvetica Neue', Helvetica, Arial, sans-serif" font-size="6" x="62" y="28"><tspan x="62" y="48">🎃</tspan></text>
</svg>
